<svg xmlns="http://www.w3.org/2000/svg" width="1024" height="1024" viewBox="0 0 1024 1024" version="1.1"><path d="M 0 512.001 L 0 1024.002 512.250 1023.751 L 1024.500 1023.500 1024.751 511.750 L 1025.002 0 512.501 0 L 0 0 0 512.001 M 0.496 512.500 C 0.496 794.100, 0.610 909.151, 0.750 768.168 C 0.890 627.186, 0.890 396.786, 0.750 256.168 C 0.610 115.551, 0.496 230.900, 0.496 512.500 M 181 133.013 C 175.049 134.099, 168.493 136.515, 163.533 139.452 C 154.289 144.923, 144.978 156.793, 141.422 167.639 C 139.543 173.368, 139.500 180.269, 139.500 473 L 139.500 772.500 141.780 778.504 C 145.871 789.279, 156.055 800.711, 166.403 806.146 C 177.367 811.906, 163.888 811.455, 341.500 812 L 504.500 812.500 504.695 846.500 C 504.813 867.153, 505.320 882.209, 505.986 884.855 C 510.568 903.062, 528.589 921.030, 545 923.753 C 547.475 924.164, 613.175 924.500, 691 924.500 L 832.500 924.500 838.249 922.304 C 852.957 916.686, 863.874 905.336, 868.837 890.500 C 870.810 884.604, 870.856 881.141, 871.524 691 C 872.275 476.898, 872.607 489.548, 865.902 476.967 C 861.900 469.460, 853.210 460.739, 846.420 457.417 C 835.225 451.940, 836.694 452.025, 752.750 452.012 L 675 452 674.992 315.750 C 674.988 228.086, 674.621 177.182, 673.965 173 C 672.407 163.072, 668.130 155.308, 659.987 147.626 C 652.078 140.166, 643.920 135.624, 634.750 133.575 C 629.504 132.403, 592.935 132.180, 407 132.185 C 285.175 132.189, 183.475 132.561, 181 133.013 M 186.465 175.948 C 181.142 178.115, 181.500 156.695, 181.500 473.118 C 181.500 752.880, 181.580 766.008, 183.286 767.714 C 184.985 769.414, 192.774 769.500, 344.286 769.500 L 503.500 769.500 504.200 657.500 C 504.586 595.900, 505.036 532.225, 505.200 516 L 505.500 486.500 508.665 479.820 C 514.006 468.547, 524.156 459.408, 536.500 454.759 C 542.325 452.566, 543.824 452.485, 588 452 L 633.500 451.500 633.500 315.778 L 633.500 180.056 631.222 177.778 L 628.945 175.500 408.722 175.310 C 287.600 175.205, 187.584 175.492, 186.465 175.948 M 396.413 210.891 C 394.715 211.325, 392.756 212.033, 392.061 212.463 C 389.265 214.190, 388 219.965, 388 230.999 C 388 239.007, 387.655 242.154, 386.750 242.394 C 386.063 242.576, 382.350 243.483, 378.500 244.408 C 368.768 246.748, 356.611 252.738, 349.500 258.697 C 335.217 270.664, 329.201 291.196, 333.458 313.443 C 337.335 333.707, 353 348.631, 379 356.830 C 387.145 359.398, 394.853 361.427, 400.129 362.392 C 412.438 364.643, 425.717 368.491, 429.759 370.977 C 436.342 375.026, 438.684 383.397, 435.969 393.173 C 433.835 400.857, 422.838 405.163, 405.079 405.271 C 393.333 405.342, 385.838 402.857, 380.929 397.266 C 377.343 393.183, 374.055 386.574, 374.022 383.385 C 374.010 382.222, 373.067 380.084, 371.927 378.635 L 369.855 376 353.119 376 C 341.121 376, 335.888 376.361, 334.636 377.277 C 331.670 379.446, 330.914 385.637, 332.611 393.868 C 337.462 417.400, 353.918 433.673, 379.570 440.304 L 388 442.483 388.004 454.492 C 388.007 464.665, 388.308 466.993, 389.973 469.723 C 392.481 473.838, 394.537 474.300, 408.248 473.832 C 425.255 473.253, 426.930 471.488, 427.523 453.528 L 427.887 442.500 434.193 440.778 C 452.593 435.755, 469.957 422.983, 476.486 409.671 C 480.673 401.132, 482.004 394.709, 481.988 383.114 C 481.966 367.087, 477.472 356.421, 466.414 346.148 C 453.276 333.943, 442.440 329.236, 410.892 322.034 C 385.527 316.243, 381.584 314.646, 377.956 308.696 C 375.211 304.194, 375.251 293.741, 378.030 289.183 C 382.522 281.815, 400.713 278.003, 417.461 280.920 C 429.707 283.052, 434.086 286.521, 437.435 296.737 C 440.353 305.638, 441.802 306.229, 459.717 305.835 C 473.711 305.527, 475.122 305.326, 477.089 303.357 C 480.982 299.461, 479.527 286.384, 473.856 274.302 C 467.111 259.930, 451.739 248.495, 433.178 244.043 L 428 242.801 428 231.868 C 428 220.187, 426.920 215.966, 423.047 212.513 C 421.158 210.828, 419.194 210.493, 410.159 210.313 C 404.297 210.196, 398.111 210.456, 396.413 210.891 M 548 497 C 546.063 498.937, 546 500.333, 546 541.566 C 546 568.995, 546.368 584.819, 547.035 586.066 C 548.051 587.964, 550.685 588, 688.535 588 C 821.649 588, 828.999 587.908, 828.989 586.250 C 828.983 585.288, 829.055 565.265, 829.149 541.755 C 829.308 501.733, 829.203 498.882, 827.504 497.005 C 825.705 495.017, 824.534 495, 687.845 495 C 551.333 495, 549.981 495.019, 548 497 M 240.107 501.492 C 237.691 502.252, 233.982 504.565, 231.865 506.632 C 220.989 517.252, 223.424 533.399, 236.936 540.250 L 242.359 543 345.813 543 C 420.437 543, 450.330 542.682, 453.078 541.859 C 458.175 540.331, 463.595 535.714, 466.135 530.736 C 467.763 527.545, 468.126 525.321, 467.816 520.449 C 467.320 512.662, 463.996 507.258, 457.272 503.305 L 452.500 500.500 348.500 500.305 C 262.403 500.144, 243.744 500.348, 240.107 501.492 M 244.500 589.916 C 237.338 591.181, 230.586 596.033, 227.391 602.211 C 223.414 609.901, 226.185 623.147, 232.748 627.820 C 240.251 633.163, 239.157 633.104, 324.521 632.790 L 403.500 632.500 408.141 630.213 C 411.002 628.804, 413.879 626.311, 415.641 623.713 C 418.197 619.947, 418.500 618.652, 418.500 611.500 C 418.500 604.213, 418.233 603.125, 415.500 599.292 C 413.850 596.977, 410.250 593.827, 407.500 592.292 L 402.500 589.500 325.500 589.355 C 283.150 589.275, 246.700 589.528, 244.500 589.916 M 551.349 630.152 C 550.166 630.738, 548.444 632.631, 547.523 634.359 C 546.052 637.117, 545.887 640.711, 546.174 663.838 L 546.500 690.176 549.306 692.588 L 552.112 695 578.806 694.996 C 603.501 694.993, 605.739 694.847, 608.696 693.044 C 610.890 691.706, 612.086 690.061, 612.511 687.793 C 612.852 685.976, 612.989 673.141, 612.815 659.271 C 612.506 634.569, 612.453 634.005, 610.224 631.776 C 607.978 629.531, 607.583 629.497, 580.724 629.294 C 563.067 629.160, 552.744 629.462, 551.349 630.152 M 657.923 631.923 L 655 634.846 655 660.358 C 655 674.389, 655.412 686.954, 655.916 688.280 C 658.116 694.066, 657.749 694, 687.883 694 C 714.142 694, 715.736 693.894, 717.747 692.021 C 720.763 689.212, 721.170 684.645, 720.814 657.662 L 720.500 633.824 717.694 631.412 L 714.888 629 687.867 629 L 660.846 629 657.923 631.923 M 768.315 630.007 C 767.114 630.491, 765.651 631.783, 765.065 632.878 C 764.387 634.146, 764 644.718, 764 662.011 L 764 689.154 766.923 692.077 L 769.846 695 795.973 695 C 823.467 695, 826.821 694.515, 828.437 690.303 C 828.811 689.329, 829.090 676.150, 829.056 661.016 L 828.996 633.500 826.442 631.250 C 823.926 629.033, 823.498 629.001, 797.194 629.063 C 782.512 629.098, 769.517 629.523, 768.315 630.007 M 240.127 678.077 C 235.826 679.798, 229.959 685.161, 227.847 689.300 C 225.511 693.879, 225.137 700.855, 226.936 706.305 C 228.215 710.183, 235.433 717.418, 239.758 719.160 C 241.671 719.930, 260.607 720.206, 302.428 720.071 C 367.575 719.861, 366.213 719.976, 372.376 714.197 C 378.683 708.283, 380.687 698.302, 377.134 690.500 C 374.792 685.356, 368.202 679.428, 363.321 678.072 C 358.409 676.708, 243.535 676.712, 240.127 678.077 M 660.110 733.396 C 655.340 736.039, 655.073 737.731, 655.040 765.500 C 655.010 791.466, 655.013 791.504, 657.410 794.500 L 659.810 797.500 687.877 797.500 C 715.745 797.500, 715.961 797.484, 718.222 795.224 C 720.458 792.990, 720.506 792.469, 720.811 767.004 C 721.152 738.623, 720.658 735.532, 715.405 733.139 C 711.628 731.418, 663.273 731.642, 660.110 733.396 M 769.761 732.715 C 763.789 733.621, 764 730.894, 764 807.318 C 764 876.473, 764.021 877.221, 766.079 880.111 L 768.158 883.030 796.790 882.765 L 825.421 882.500 827.806 879 L 830.191 875.500 829.546 807.105 C 828.854 733.720, 828.876 734.003, 823.790 732.641 C 821.298 731.973, 774.224 732.038, 769.761 732.715 M 550.750 734.080 C 546.471 736.573, 546 739.667, 546 765.301 C 546 780.048, 546.423 790.915, 547.070 792.770 C 549.060 798.481, 551.802 799, 579.951 799 C 607.881 799, 609.893 798.615, 611.892 792.881 C 612.588 790.883, 613 780.446, 613 764.801 C 613 738.812, 612.468 735.161, 608.455 733.621 C 605.667 732.551, 552.651 732.973, 550.750 734.080 M 549.455 839.455 C 547.027 841.882, 547 842.108, 547 860.280 C 547 878.190, 547.058 878.706, 549.314 880.826 L 551.629 883 633.380 883 C 684.793 883, 715.810 882.637, 716.961 882.021 C 720.092 880.345, 721 875.297, 721 859.573 C 721 843.904, 720.517 841.773, 716.163 838.250 C 714.955 837.273, 696.856 837, 633.263 837 L 551.909 837 549.455 839.455" stroke="none" fill="#ffffff" fill-rule="evenodd"/><path d="M 181 133.013 C 175.049 134.099, 168.493 136.515, 163.533 139.452 C 154.289 144.923, 144.978 156.793, 141.422 167.639 C 139.543 173.368, 139.500 180.269, 139.500 473 L 139.500 772.500 141.780 778.504 C 145.871 789.279, 156.055 800.711, 166.403 806.146 C 177.367 811.906, 163.888 811.455, 341.500 812 L 504.500 812.500 504.695 846.500 C 504.813 867.153, 505.320 882.209, 505.986 884.855 C 510.568 903.062, 528.589 921.030, 545 923.753 C 547.475 924.164, 613.175 924.500, 691 924.500 L 832.500 924.500 838.249 922.304 C 852.957 916.686, 863.874 905.336, 868.837 890.500 C 870.810 884.604, 870.856 881.141, 871.524 691 C 872.275 476.898, 872.607 489.548, 865.902 476.967 C 861.900 469.460, 853.210 460.739, 846.420 457.417 C 835.225 451.940, 836.694 452.025, 752.750 452.012 L 675 452 674.992 315.750 C 674.988 228.086, 674.621 177.182, 673.965 173 C 672.407 163.072, 668.130 155.308, 659.987 147.626 C 652.078 140.166, 643.920 135.624, 634.750 133.575 C 629.504 132.403, 592.935 132.180, 407 132.185 C 285.175 132.189, 183.475 132.561, 181 133.013 M 186.465 175.948 C 181.142 178.115, 181.500 156.695, 181.500 473.118 C 181.500 752.880, 181.580 766.008, 183.286 767.714 C 184.985 769.414, 192.774 769.500, 344.286 769.500 L 503.500 769.500 504.200 657.500 C 504.586 595.900, 505.036 532.225, 505.200 516 L 505.500 486.500 508.665 479.820 C 514.006 468.547, 524.156 459.408, 536.500 454.759 C 542.325 452.566, 543.824 452.485, 588 452 L 633.500 451.500 633.500 315.778 L 633.500 180.056 631.222 177.778 L 628.945 175.500 408.722 175.310 C 287.600 175.205, 187.584 175.492, 186.465 175.948 M 396.413 210.891 C 394.715 211.325, 392.756 212.033, 392.061 212.463 C 389.265 214.190, 388 219.965, 388 230.999 C 388 239.007, 387.655 242.154, 386.750 242.394 C 386.063 242.576, 382.350 243.483, 378.500 244.408 C 368.768 246.748, 356.611 252.738, 349.500 258.697 C 335.217 270.664, 329.201 291.196, 333.458 313.443 C 337.335 333.707, 353 348.631, 379 356.830 C 387.145 359.398, 394.853 361.427, 400.129 362.392 C 412.438 364.643, 425.717 368.491, 429.759 370.977 C 436.342 375.026, 438.684 383.397, 435.969 393.173 C 433.835 400.857, 422.838 405.163, 405.079 405.271 C 393.333 405.342, 385.838 402.857, 380.929 397.266 C 377.343 393.183, 374.055 386.574, 374.022 383.385 C 374.010 382.222, 373.067 380.084, 371.927 378.635 L 369.855 376 353.119 376 C 341.121 376, 335.888 376.361, 334.636 377.277 C 331.670 379.446, 330.914 385.637, 332.611 393.868 C 337.462 417.400, 353.918 433.673, 379.570 440.304 L 388 442.483 388.004 454.492 C 388.007 464.665, 388.308 466.993, 389.973 469.723 C 392.481 473.838, 394.537 474.300, 408.248 473.832 C 425.255 473.253, 426.930 471.488, 427.523 453.528 L 427.887 442.500 434.193 440.778 C 452.593 435.755, 469.957 422.983, 476.486 409.671 C 480.673 401.132, 482.004 394.709, 481.988 383.114 C 481.966 367.087, 477.472 356.421, 466.414 346.148 C 453.276 333.943, 442.440 329.236, 410.892 322.034 C 385.527 316.243, 381.584 314.646, 377.956 308.696 C 375.211 304.194, 375.251 293.741, 378.030 289.183 C 382.522 281.815, 400.713 278.003, 417.461 280.920 C 429.707 283.052, 434.086 286.521, 437.435 296.737 C 440.353 305.638, 441.802 306.229, 459.717 305.835 C 473.711 305.527, 475.122 305.326, 477.089 303.357 C 480.982 299.461, 479.527 286.384, 473.856 274.302 C 467.111 259.930, 451.739 248.495, 433.178 244.043 L 428 242.801 428 231.868 C 428 220.187, 426.920 215.966, 423.047 212.513 C 421.158 210.828, 419.194 210.493, 410.159 210.313 C 404.297 210.196, 398.111 210.456, 396.413 210.891 M 548 497 C 546.063 498.937, 546 500.333, 546 541.566 C 546 568.995, 546.368 584.819, 547.035 586.066 C 548.051 587.964, 550.685 588, 688.535 588 C 821.649 588, 828.999 587.908, 828.989 586.250 C 828.983 585.288, 829.055 565.265, 829.149 541.755 C 829.308 501.733, 829.203 498.882, 827.504 497.005 C 825.705 495.017, 824.534 495, 687.845 495 C 551.333 495, 549.981 495.019, 548 497 M 240.107 501.492 C 237.691 502.252, 233.982 504.565, 231.865 506.632 C 220.989 517.252, 223.424 533.399, 236.936 540.250 L 242.359 543 345.813 543 C 420.437 543, 450.330 542.682, 453.078 541.859 C 458.175 540.331, 463.595 535.714, 466.135 530.736 C 467.763 527.545, 468.126 525.321, 467.816 520.449 C 467.320 512.662, 463.996 507.258, 457.272 503.305 L 452.500 500.500 348.500 500.305 C 262.403 500.144, 243.744 500.348, 240.107 501.492 M 244.500 589.916 C 237.338 591.181, 230.586 596.033, 227.391 602.211 C 223.414 609.901, 226.185 623.147, 232.748 627.820 C 240.251 633.163, 239.157 633.104, 324.521 632.790 L 403.500 632.500 408.141 630.213 C 411.002 628.804, 413.879 626.311, 415.641 623.713 C 418.197 619.947, 418.500 618.652, 418.500 611.500 C 418.500 604.213, 418.233 603.125, 415.500 599.292 C 413.850 596.977, 410.250 593.827, 407.500 592.292 L 402.500 589.500 325.500 589.355 C 283.150 589.275, 246.700 589.528, 244.500 589.916 M 551.349 630.152 C 550.166 630.738, 548.444 632.631, 547.523 634.359 C 546.052 637.117, 545.887 640.711, 546.174 663.838 L 546.500 690.176 549.306 692.588 L 552.112 695 578.806 694.996 C 603.501 694.993, 605.739 694.847, 608.696 693.044 C 610.890 691.706, 612.086 690.061, 612.511 687.793 C 612.852 685.976, 612.989 673.141, 612.815 659.271 C 612.506 634.569, 612.453 634.005, 610.224 631.776 C 607.978 629.531, 607.583 629.497, 580.724 629.294 C 563.067 629.160, 552.744 629.462, 551.349 630.152 M 657.923 631.923 L 655 634.846 655 660.358 C 655 674.389, 655.412 686.954, 655.916 688.280 C 658.116 694.066, 657.749 694, 687.883 694 C 714.142 694, 715.736 693.894, 717.747 692.021 C 720.763 689.212, 721.170 684.645, 720.814 657.662 L 720.500 633.824 717.694 631.412 L 714.888 629 687.867 629 L 660.846 629 657.923 631.923 M 768.315 630.007 C 767.114 630.491, 765.651 631.783, 765.065 632.878 C 764.387 634.146, 764 644.718, 764 662.011 L 764 689.154 766.923 692.077 L 769.846 695 795.973 695 C 823.467 695, 826.821 694.515, 828.437 690.303 C 828.811 689.329, 829.090 676.150, 829.056 661.016 L 828.996 633.500 826.442 631.250 C 823.926 629.033, 823.498 629.001, 797.194 629.063 C 782.512 629.098, 769.517 629.523, 768.315 630.007 M 240.127 678.077 C 235.826 679.798, 229.959 685.161, 227.847 689.300 C 225.511 693.879, 225.137 700.855, 226.936 706.305 C 228.215 710.183, 235.433 717.418, 239.758 719.160 C 241.671 719.930, 260.607 720.206, 302.428 720.071 C 367.575 719.861, 366.213 719.976, 372.376 714.197 C 378.683 708.283, 380.687 698.302, 377.134 690.500 C 374.792 685.356, 368.202 679.428, 363.321 678.072 C 358.409 676.708, 243.535 676.712, 240.127 678.077 M 660.110 733.396 C 655.340 736.039, 655.073 737.731, 655.040 765.500 C 655.010 791.466, 655.013 791.504, 657.410 794.500 L 659.810 797.500 687.877 797.500 C 715.745 797.500, 715.961 797.484, 718.222 795.224 C 720.458 792.990, 720.506 792.469, 720.811 767.004 C 721.152 738.623, 720.658 735.532, 715.405 733.139 C 711.628 731.418, 663.273 731.642, 660.110 733.396 M 769.761 732.715 C 763.789 733.621, 764 730.894, 764 807.318 C 764 876.473, 764.021 877.221, 766.079 880.111 L 768.158 883.030 796.790 882.765 L 825.421 882.500 827.806 879 L 830.191 875.500 829.546 807.105 C 828.854 733.720, 828.876 734.003, 823.790 732.641 C 821.298 731.973, 774.224 732.038, 769.761 732.715 M 550.750 734.080 C 546.471 736.573, 546 739.667, 546 765.301 C 546 780.048, 546.423 790.915, 547.070 792.770 C 549.060 798.481, 551.802 799, 579.951 799 C 607.881 799, 609.893 798.615, 611.892 792.881 C 612.588 790.883, 613 780.446, 613 764.801 C 613 738.812, 612.468 735.161, 608.455 733.621 C 605.667 732.551, 552.651 732.973, 550.750 734.080 M 549.455 839.455 C 547.027 841.882, 547 842.108, 547 860.280 C 547 878.190, 547.058 878.706, 549.314 880.826 L 551.629 883 633.380 883 C 684.793 883, 715.810 882.637, 716.961 882.021 C 720.092 880.345, 721 875.297, 721 859.573 C 721 843.904, 720.517 841.773, 716.163 838.250 C 714.955 837.273, 696.856 837, 633.263 837 L 551.909 837 549.455 839.455" stroke="none" fill="#5141a3" fill-rule="evenodd"/></svg>
