<?xml version="1.0" encoding="UTF-8"?>
<svg width="32px" height="32px" viewBox="0 0 32 32" version="1.1" xmlns="http://www.w3.org/2000/svg">
    <g stroke="none" stroke-width="1" fill="none" fill-rule="evenodd">
        <rect fill="#785AA2" x="0" y="0" width="32" height="32" rx="4"/>
        <path d="M8,6 L24,6 C25.1045695,6 26,6.8954305 26,8 L26,24 C26,25.1045695 25.1045695,26 24,26 L8,26 C6.8954305,26 6,25.1045695 6,24 L6,8 C6,6.8954305 6.8954305,6 8,6 Z M9,9 L9,11 L23,11 L23,9 L9,9 Z M9,14 L11,14 L11,16 L9,16 L9,14 Z M13,14 L15,14 L15,16 L13,16 L13,14 Z M17,14 L19,14 L19,16 L17,16 L17,14 Z M21,14 L23,14 L23,16 L21,16 L21,14 Z M9,18 L11,18 L11,20 L9,20 L9,18 Z M13,18 L15,18 L15,20 L13,20 L13,18 Z M17,18 L19,18 L19,20 L17,20 L17,18 Z M21,18 L23,18 L23,20 L21,20 L21,18 Z M9,22 L11,22 L11,24 L9,24 L9,22 Z M13,22 L15,22 L15,24 L13,24 L13,22 Z M17,22 L19,22 L19,24 L17,24 L17,22 Z M21,22 L23,22 L23,24 L21,24 L21,22 Z" fill="#FFFFFF"/>
    </g>
</svg>
